<?xml version="1.0" encoding="utf-8"?>
<!-- Generator: Adobe Illustrator 21.1.0, SVG Export Plug-In . SVG Version: 6.00 Build 0)  -->
<svg version="1.1" id="Layer_1" xmlns="http://www.w3.org/2000/svg" xmlns:xlink="http://www.w3.org/1999/xlink" x="0px" y="0px"
	 viewBox="0 0 465 376.5" style="enable-background:new 0 0 465 376.5;" xml:space="preserve">
<style type="text/css">
	.st0{fill:#C8202E;}
	.st1{fill:#FFED00;stroke:#000000;stroke-width:5;stroke-miterlimit:10;}
	.st2{fill:#1D1D1B;}
	.st3{fill:#FFFFFF;}
	.st4{fill:#FFED00;}
	.st5{fill:#FFED00;stroke:#1D1D1B;stroke-width:5;stroke-miterlimit:10;}
	.st6{fill:#FFFFFF;stroke:#1D1D1B;stroke-width:5;stroke-miterlimit:10;}
	.st7{fill:none;stroke:#000000;stroke-miterlimit:10;}
	.st8{fill:#FFED00;stroke:#1D1D1B;stroke-width:4.9409;stroke-miterlimit:10;}
	.st9{fill:none;stroke:#1D1D1B;stroke-width:4.9409;stroke-miterlimit:10;}
	.st10{fill:none;stroke:#1D1D1B;stroke-width:5;stroke-miterlimit:10;}
	.st11{fill:#FFED00;stroke:#1D1D1B;stroke-width:5;stroke-linecap:square;stroke-linejoin:bevel;stroke-miterlimit:10;}
</style>
<path class="st0" d="M113.1,121.4c0,0-17.7-40.8,17.9-62c49-29.1,102.2-18.1,105.7-44.5c0,0,0,0,0,0C250,44,233.2,76,192.8,93.5
	c-36.1,15.7-36.3,56.4-36.3,56.4s-8.1-29.2-5.3-57.4c0,0-6.1,18.5-5.4,31.1c0,0-9.7-23.8-4.9-44.6c0,0-10.1,20.1-9.4,45.3
	c0,0-13.8-32.7-5.5-43.8C125.9,80.5,113.4,94.4,113.1,121.4z"/>
<path class="st0" d="M172,184.8c0,0-23.8-62.5,24-85.9c55.5-27.2,59.9-27.3,62.1-65.6c0,0,0.1,0.1,0.3,0.2
	c32.2,19.2,37.3,61.7-6.1,81.3c-39.3,17.7-43.6,60.2-35.4,74.6c0,0-26.8-11.3-19.5-35.6c0,0-12.8,20-7.6,37.4
	c0,0-14.1-27.6-4.9-40.5C185,150.8,169.2,171.2,172,184.8z"/>
<path class="st0" d="M224.9,189.7c0,0-12.3-32.6,4.5-50.7c5.4-5.8,20.7-22.8,45.1-27.7c50.5-10.2,72.4-34.7,53.9-60.3
	c0,0,62.7,41.6,42.7,75.7c-14.5,24.7-36.1,25.8-51.3,25.7c-16.9,0-25.5,23.2-39.4,41.4c0,0-5.4-24.5,9.7-43.9c0,0-29,24.1-31.3,52.4
	c0,0-5.8-29.9,7.4-61.2c0,0-17.6,31.2-28.2,52.7c0,0-7.2-35.2,5.1-45.6C243.1,148.1,230.9,152.8,224.9,189.7z"/>
<path class="st9" d="M99.9,146.9l2.8-11.9c0.5-1.8,0.7-3.4,0.7-4.8c0-5.3-3.7-8.4-10.3-8.4c-7.2,0-11.5,4.3-11.5,11.4
	c0,3.9,1.9,7.1,6.1,11.4l27.8,28.1c11.2,11.2,15.7,20.1,15.7,31.5c0,33.1-19.4,51.6-60.5,51.6c-36.5,0-56.1-12.8-56.1-36.1
	c0-7.1,1.2-13.9,3.5-22.4h46l-2.8,11.2c-0.7,3-0.9,5-0.9,6.8c0,5.7,4.2,9.1,10.8,9.1c8.2,0,12.9-6.2,12.9-17.1
	c0-5.7-1.9-7.8-9.8-15.5l-22.7-22.6c-10.1-10-15.2-20.1-15.2-30.8c0-12.1,4.7-25.3,11.9-33.3c9.3-10.3,22.2-14.4,45.1-14.4
	c34.6,0,54,12.8,54,35.6c0,5.7-0.9,11-3.5,20.5H99.9z"/>
<path class="st10" d="M206,197.8c24.3,0,46.3,2.3,46.3,31.3c0,4.9-0.9,11.9-2.8,20.6c-10.1,44.2-24.8,53.5-62.6,53.5h-18L155,362.9
	h-46.3l38.1-165H206z M176.1,271.7h8.9c11.9,0,15-2.3,17.5-13.3l3.5-14.7c0.5-2.1,0.7-4.4,0.7-5.8c0-6.3-3-8.4-11.5-8.4h-9.3
	L176.1,271.7z"/>
<path class="st10" d="M413.6,276.3h-39l25.9-113.4l-51.4,113.4h-29.7v-111l-25.7,111h-38.6l38.1-165h57.7
	c-0.5,17.5-3.5,108.9-3.5,108.9l45.1-108.9h58.2L413.6,276.3z"/>
</svg>
