<?xml version="1.0" encoding="utf-8"?>
<!-- Generator: Adobe Illustrator 21.1.0, SVG Export Plug-In . SVG Version: 6.00 Build 0)  -->
<svg version="1.1" id="Layer_1" xmlns="http://www.w3.org/2000/svg" xmlns:xlink="http://www.w3.org/1999/xlink" x="0px" y="0px"
	 viewBox="0 0 465 376.5" style="enable-background:new 0 0 465 376.5;" xml:space="preserve">
<style type="text/css">
	.st0{fill:#C8202E;}
	.st1{fill:#FFED00;stroke:#000000;stroke-width:5;stroke-miterlimit:10;}
	.st2{fill:#1D1D1B;}
	.st3{enable-background:new    ;}
	.st4{fill:#FFFFFF;}
	.st5{fill:#FFED00;}
	.st6{fill:#FFED00;stroke:#1D1D1B;stroke-width:5;stroke-miterlimit:10;}
	.st7{fill:#FFFFFF;stroke:#1D1D1B;stroke-width:5;stroke-miterlimit:10;}
	.st8{fill:none;stroke:#000000;stroke-miterlimit:10;}
	.st9{fill:none;stroke:#1D1D1B;stroke-width:5;stroke-miterlimit:10;}
	.st10{fill:#FFED00;stroke:#1D1D1B;stroke-width:4.9409;stroke-miterlimit:10;}
	.st11{fill:none;stroke:#1D1D1B;stroke-width:4.9409;stroke-miterlimit:10;}
	.st12{fill:#FFED00;stroke:#1D1D1B;stroke-width:5;stroke-linecap:square;stroke-linejoin:bevel;stroke-miterlimit:10;}
</style>
<path class="st0" d="M-2149.9,121.4c0,0-17.7-40.8,17.9-62c49-29.1,102.2-18.1,105.7-44.5l0,0c13.3,29.1-3.6,61.1-43.9,78.7
	c-36.1,15.7-36.3,56.4-36.3,56.4s-8.1-29.2-5.3-57.4c0,0-6.1,18.5-5.4,31.1c0,0-9.7-23.8-4.9-44.6c0,0-10.1,20.1-9.4,45.3
	c0,0-13.8-32.7-5.5-43.8C-2137.1,80.5-2149.6,94.4-2149.9,121.4z"/>
<path class="st0" d="M-2091,184.8c0,0-23.8-62.5,24-85.9c55.5-27.2,59.9-27.3,62.1-65.6c0,0,0.1,0.1,0.3,0.2
	c32.2,19.2,37.3,61.7-6.1,81.3c-39.3,17.7-43.6,60.2-35.4,74.6c0,0-26.8-11.3-19.5-35.6c0,0-12.8,20-7.6,37.4
	c0,0-14.1-27.6-4.9-40.5C-2078.1,150.8-2093.9,171.2-2091,184.8z"/>
<path class="st0" d="M-2038.1,189.7c0,0-12.3-32.6,4.5-50.7c5.4-5.8,20.7-22.8,45.1-27.7c50.5-10.2,72.4-34.7,53.9-60.3
	c0,0,62.7,41.6,42.7,75.7c-14.5,24.7-36.1,25.8-51.3,25.7c-16.9,0-25.5,23.2-39.4,41.4c0,0-5.4-24.5,9.7-43.9c0,0-29,24.1-31.3,52.4
	c0,0-5.8-29.9,7.4-61.2c0,0-17.6,31.2-28.2,52.7c0,0-7.2-35.2,5.1-45.6C-2020,148.1-2032.1,152.8-2038.1,189.7z"/>
<path class="st1" d="M-2871.8,108.2c0,0-8.5-11.1,3.4-24.5c18.6-21,36.3-1.9,45.3-38.3c7.3-29.6,16.5-38.8,37.9-41
	s44.8,3.8,34.8-32.3c0,0,19.4,5.4,23.4,22.7c0,0,10.7-4.7,4-18.1c0,0,31.1,15.2,31.3,36.6c0,0,12.9-10,10.9-21.3
	c0,0,36.7,20.5,29.3,50.5c-3.1,12.4,25,20.9,31,37.8c8.7,24.3,21,26.6,21,26.6L-2871.8,108.2z"/>
<path class="st0" d="M-2742.9,72.6c0,0-4.6-10.3,2.4-17.2c2.2-2.2,5-4,7.8-5.3c5-2.4,12.4-4.1,17.9-5.2c12.1-2.4,36.3-5.6,28.6-15.5
	c0,0,14.2,9.8,5.9,22.9c-6,9.5-11.7,12.8-18,12.8c-7,0-15.4,4.3-21.2,11.3c0,0-2.2-9.4,4-16.9c0,0-10.7,5-11.6,15.8
	c0,0-3.7-7.2,1.7-19.2c0,0-7,9.3-11.4,17.5c0,0-2.4-13.1,2.7-17.2C-2734,56.6-2740.4,58.5-2742.9,72.6z"/>
<path class="st0" d="M-2767.2,68.2c0,0-11.7-14.1,3.3-24.7c12.1-8.6,14.8-6.1,33.2-10.2c11.6-2.6,28-5.3,18.7-20.2
	c0,0,13.9,6.5,10.4,24.5c0,0-22.8,0.9-33.8,5.1s-16.5,13.1-16.5,13.1s-5.1,8.6-0.9,15.8c0,0-7-5.7-3.3-17.8c0,0-6.9,11.3-4.3,20
	c0,0-6.6-15.1-2-21.6C-2762.5,52.3-2768.7,61.3-2767.2,68.2z"/>
<path class="st0" d="M-2799.8,61.5c0,0-8.8-20.3,9-31.1c6.7-4.1,17-8.5,28.2-8c10.3,0.4,23.1-1.1,24.8-14.4c0,0,7,13.3,5,19.2
	c0,0-22.8,2.6-31.5,7.9s-11.1,7.5-12.1,15.4c-1,7.8,0,16.7,0,16.7s-5.7-6.1-4.3-20.3c0,0-3,9.3-2.7,15.6c0,0-5.6-8.9-3.2-19.3
	c0,0-4.3,7-4,19.6c0,0-7.4-14-3.3-19.6C-2793.9,43.3-2799.6,48-2799.8,61.5z"/>
<rect x="-2819.1" y="77.8" class="st2" width="159.1" height="30.3"/>
<text transform="matrix(1 0 0 1 -2813.4641 103.5297)" class="st4" style="font-family:'Theinhardt-Bold'; font-size:30.6627px;">Be ready</text>
<rect x="-3526.8" y="72.3" class="st2" width="159.1" height="38.2"/>
<image style="overflow:visible;enable-background:new    ;" width="1200" height="1914" xlink:href="../../../../1200px-Pionierorganisation_Ernst_Thaelmann-Emblem.svg.png"  transform="matrix(0.2002 0 0 0.2002 -848.9432 26.7298)">
</image>
<text transform="matrix(1 0 0 1 -3521.1807 102.9122)" class="st5" style="font-family:'Theinhardt-Bold'; font-size:30.6627px;">Be ready</text>
<text transform="matrix(1 0 0 1 -4357.228 -278.026)" style="font-family:'Theinhardt-Medium'; font-size:39.6087px;">The Self Protection Movement</text>
<text transform="matrix(0.8585 0 0 1 -4280.1211 68.6488)" style="font-family:'Theinhardt-Medium'; font-size:229.4883px;">SPM</text>
<path class="st6" d="M-3511.5,110.5h44.8c16.6,0,32.2,0.9,43.1,11c8.5,7.8,13.7,20.1,13.9,34.1c0.3,14.4-4.6,27.6-13,35.8
	c-11.1,10.9-27.4,11.8-44.6,11.8h-22l-1,63.3h-25.3L-3511.5,110.5z M-3488.9,178.4h25.2c9.7,0,15.2-0.9,19.3-3
	c6.1-3.4,9.9-11.1,9.8-19.8c-0.1-8.5-3.9-16.2-9.9-19.3c-4-2-9.4-2.9-18.9-2.9h-24.7L-3488.9,178.4z"/>
<path class="st6" d="M-3343.7,266.6l-28.4-97.2c-4.6-15.7-7.1-26.6-7.1-26.6h-0.4c0.6,7.1,2,26.1,3,55.2l2.2,68.6h-24.7l-3.4-156
	h35.3l25.2,83.7c4.4,14.9,7.8,26.1,9.2,33.2h0.4c0.9-6.4,3.7-20.2,6.1-33.5l15.6-83.5h35.9l12.2,156h-24.7l-4.7-68.6
	c-1.5-21.8-2.3-46.1-2.4-58.7h-0.4c-0.8,6.4-2.5,16.2-5,29.7l-18.7,97.7L-3343.7,266.6L-3343.7,266.6z"/>
<polyline class="st7" points="-3287.7,266.6 -3490.2,266.6 -3575.2,266.6 "/>
<polyline class="st7" points="-3310.9,110.5 -3490.2,110.5 -3575.2,110.5 "/>
<path class="st6" d="M-3542,148.7c-7.2-10.4-19.2-18.1-34.3-18.1c-15.7,0-25.4,8.6-26.2,20.1c-0.7,11.2,5.7,15.4,21,19.3l16.4,4.1
	c25.5,6.6,43.9,16,43.1,44.9c-0.9,30.1-23.2,50.5-59.1,50.5c-31.2,0-51.2-17.8-59.8-33.7l22-17.1c5.6,12.1,20.4,24.8,40.4,24.8
	c19,0,29.2-9.1,29.7-21.9c0.5-12.5-9-17.1-23-20.6l-18.4-4.6c-22.3-5.5-40.5-16.3-38.4-44.2c2-26.6,25.6-44.1,54-44.1
	c27.8,0,43.6,14.9,51.3,24.5L-3542,148.7z"/>
<path class="st8" d="M-3377.9-575.2c0,0-7.7-17.3,4-29c3.8-3.8,8.5-6.7,13.1-9c8.5-4.1,20.8-6.9,30.1-8.7c20.3-4,58.2-2.8,48.1-26
	c0,0,21.8,16.9,7.9,38.9c-13.9,22-32.4,21.6-32.4,21.6s-23,0.8-35.3,12.1c0,0-5.8-8.1,4.8-20.6c0,0-11.9,1.4-13.5,19.7
	c0,0-9.5-4.4-0.4-24.6c0,0-6.2,3.6-13.5,17.5c0,0-6.6-12.1,2-18.9C-3363-602.2-3373.7-599-3377.9-575.2z"/>
<path class="st8" d="M-3412.6-578.8c0,0-20.3-14.3,2.6-35.1c22.8-20.8,39.5-17.9,58.8-23.4c19.3-5.6,37.7-11.3,37.7-31
	c0,0,10.3,7.5,7.5,38.7c0,0-34.7,1-53.2,8.1s-27.8,22-27.8,22s-8.5,14.5-1.6,26.6c0,0-11.7-9.5-5.6-30c0,0-12.9,12.9-8.5,27.6
	c0,0-11.1-20.5-5.4-29.8C-3408.1-605-3415-590.3-3412.6-578.8z"/>
<path class="st8" d="M-3453.9-590.5c0,0-10.7-10.3-5-24.4s22-23.8,22-23.8s19.1-8.9,36.3-8.3c17.3,0.6,30.5-0.8,37.3-4.4
	c6.8-3.6,14.9-2.6,14.1-12.1c0,0,5.8,10.7,2.4,20.6c0,0-38.3,4.4-53,13.3c-14.7,8.9-24,11.9-24,25.2s1.2,22.8,1.2,22.8
	s-8.1-8.1-3.8-30c0,0-4.8,15.3-6.2,23c0,0-7.2-11.9,2.8-34.1c0,0-10.3,6.5-11.1,32.3c0,0-13.3-8.5-3.2-30.3
	C-3444-620.5-3455.1-619.7-3453.9-590.5z"/>
<path class="st4" d="M-3171.1-575.2c0,0-7.7-17.3,4-29c3.8-3.8,8.5-6.7,13.1-9c8.5-4.1,20.8-6.9,30.1-8.7c20.3-4,58.2-2.8,48.1-26
	c0,0,23.8,16.5,9.9,38.5c-10.1,16-23.6,20.4-30.3,21.6c-1.8,0.3-3.7,0.4-5.6,0.4c-5.4-0.1-24.2,0.4-33.9,12.2c0,0-5.8-8.1,4.8-20.6
	c0,0-11.9,1.4-13.5,19.7c0,0-9.5-4.4-0.4-24.6c0,0-6.2,3.6-13.5,17.5c0,0-6.6-12.1,2-18.9C-3156.2-602.2-3166.9-599-3171.1-575.2z"
	/>
<path class="st4" d="M-3205.8-578.8c0,0-20.5-19.3,4.7-37.1c20.4-14.4,25.7-14.7,56.6-21.5c19.6-4.3,37.7-11.3,37.7-31
	c0,0,10.3,7.5,7.5,38.7c0,0-34.7,1-53.2,8.1s-27.8,22-27.8,22s-8.5,14.5-1.6,26.6c0,0-11.7-9.5-5.6-30c0,0-12.9,12.9-8.5,27.6
	c0,0-10-19.3-5.4-29.8C-3201.3-605-3208.2-590.3-3205.8-578.8z"/>
<path class="st4" d="M-3247.1-590.5c0,0-12.8-30.1,17.1-48.2c11.2-6.8,17.5-9.1,36.3-8.3c17.3,0.7,52.2-6.9,51.4-16.5
	c0,0,5.8,10.7,2.4,20.6c0,0-38.3,4.4-53,13.3c-14.7,8.9-22.3,12-24,25.2s1.2,22.8,1.2,22.8s-8-8.6-5.6-32.4c0,0-4.8,14.8-4.3,25.5
	c0,0-6.2-9.8-2.2-27.3c0,0-6.7,4.3-6.1,25.5c0,0-12.4-20.3-0.7-30.3C-3234.8-620.5-3246.9-613.3-3247.1-590.5z"/>
<g>
	<path class="st2" d="M-3448,33.3c0,0-4.8-10.7,2.5-17.9c2.3-2.3,5.2-4.1,8.1-5.5c5.2-2.5,12.8-4.3,18.5-5.4
		c12.5-2.4,37.6-5.8,29.7-16c0,0,14.7,10.2,6.1,23.7c-6.2,9.9-14.6,12.6-18.7,13.3c-1.1,0.2-2.3,0.3-3.4,0.2
		c-3.3-0.1-12.6,4.2-18.5,11.5c0,0-2.3-9.8,4.2-17.5c0,0-11.1,5.1-12,16.4c0,0-3.8-7.4,1.8-19.9c0,0-7.3,9.6-11.8,18.2
		c0,0-2.5-13.6,2.8-17.8C-3438.8,16.7-3445.4,18.6-3448,33.3z"/>
	<path class="st2" d="M-3472.2,27.7c0,0-12.2-14.6,3.4-25.6c12.6-8.9,15.4-6.3,34.4-10.5c12.1-2.7,29.1-5.5,19.4-21
		c0,0,14.5,6.7,10.7,25.4c0,0-23.6,0.9-35,5.3s-17.1,13.6-17.1,13.6s-5.3,8.9-1,16.4c0,0-7.2-5.9-3.4-18.5c0,0-7.1,11.7-4.4,20.8
		c0,0-6.9-15.7-2.1-22.4C-3467.3,11.3-3473.7,20.6-3472.2,27.7z"/>
	<path class="st2" d="M-3505.9,20.8c0,0-9.1-21,9.3-32.2c6.9-4.2,17.6-8.8,29.3-8.3c10.6,0.4,23.9-1.1,25.7-14.9
		c0,0,7.2,13.7,5.2,19.9c0,0-23.6,2.7-32.7,8.2s-11.5,7.8-12.5,16c-1.1,8.1,0,17.3,0,17.3s-5.9-6.3-4.5-21c0,0-3.1,9.6-2.8,16.2
		c0,0-5.8-9.2-3.4-20c0,0-4.4,7.2-4.1,20.3c0,0-7.7-14.6-3.4-20.3C-3499.8,1.9-3505.8,6.7-3505.9,20.8z"/>
</g>
<g>
	<rect x="-841.8" y="-248.1" class="st2" width="159.1" height="38.2"/>
	<text transform="matrix(1 0 0 1 -836.1219 -217.4335)" class="st5" style="font-family:'Theinhardt-Bold'; font-size:30.6627px;">Be ready</text>
</g>
<path class="st6" d="M-881.2-209.4h44.8c16.6,0,32.2,0.9,43.1,11c8.5,7.8,13.7,20.1,13.9,34.1c0.3,14.4-4.6,27.6-13,35.8
	c-11.1,10.9-27.4,11.8-44.6,11.8h-22l-1,63.3h-25.3L-881.2-209.4z M-858.5-141.5h25.2c9.7,0,15.2-0.9,19.3-3
	c6.1-3.4,9.9-11.1,9.8-19.8c-0.1-8.5-3.9-16.2-9.9-19.3c-4-2-9.4-2.9-18.9-2.9h-24.7L-858.5-141.5z"/>
<path class="st6" d="M-713.4-53.4l-28.4-97.2c-4.6-15.7-7.1-26.6-7.1-26.6h-0.4c0.6,7.1,2,26.1,3,55.2l2.2,68.6h-24.7l-3.4-156h35.3
	l25.2,83.7c4.4,14.9,7.8,26.1,9.2,33.2h0.4c0.9-6.4,3.7-20.2,6.1-33.5l15.6-83.5h35.9l12.2,156H-657l-4.7-68.6
	c-1.5-21.8-2.3-46.1-2.4-58.7h-0.4c-0.8,6.4-2.5,16.2-5,29.7l-18.7,97.7L-713.4-53.4L-713.4-53.4z"/>
<polyline class="st7" points="-657.4,-53.4 -859.8,-53.4 -885.2,-53.4 "/>
<line class="st9" x1="-881.2" y1="-209.4" x2="-680.3" y2="-209.4"/>
<text transform="matrix(1 0 0 1 -758.7112 658.6172)" style="font-family:'AkzidenzGroteskPro-XBdIt'; font-size:233.7554px;">SPM</text>
<text transform="matrix(1 0 0 1 -2931.8813 -495.4647)" style="font-family:'AkzidenzGroteskPro-XBdIt'; font-size:233.7554px;">SPM</text>
<polygon class="st7" points="-2923.1,106.3 -2556.6,106.3 -2556.6,271.3 -2967.1,271.3 "/>
<path class="st10" d="M-2869,162.4l2.8-11.9c0.5-1.8,0.7-3.4,0.7-4.8c0-5.3-3.7-8.4-10.3-8.4c-7.2,0-11.5,4.3-11.5,11.4
	c0,3.9,1.9,7.1,6.1,11.4l27.8,28.1c11.2,11.2,15.7,20.1,15.7,31.5c0,33.1-19.4,51.6-60.5,51.6c-36.5,0-56.1-12.8-56.1-36.1
	c0-7.1,1.2-13.9,3.5-22.4h46l-2.8,11.2c-0.7,3-0.9,5-0.9,6.8c0,5.7,4.2,9.1,10.8,9.1c8.2,0,12.9-6.2,12.9-17.1
	c0-5.7-1.9-7.8-9.8-15.5l-22.7-22.6c-10.1-10-15.2-20.1-15.2-30.8c0-12.1,4.7-25.3,11.9-33.3c9.3-10.3,22.2-14.4,45.1-14.4
	c34.6,0,54,12.8,54,35.6c0,5.7-0.9,11-3.5,20.5h-44V162.4z"/>
<path class="st6" d="M-2742.2,106.3c24.3,0,46.3,2.3,46.3,31.3c0,4.9-0.9,11.9-2.8,20.6c-10.1,44.2-24.8,53.5-62.6,53.5h-18
	l-13.8,59.6h-46.3l38.1-165L-2742.2,106.3L-2742.2,106.3z M-2772.1,180.1h8.9c11.9,0,15-2.3,17.5-13.3l3.5-14.7
	c0.5-2.1,0.7-4.4,0.7-5.8c0-6.3-3-8.4-11.5-8.4h-9.3L-2772.1,180.1z"/>
<path class="st6" d="M-2556.6,271.3h-39l25.9-113.4l-51.4,113.4h-29.7v-111l-25.7,111h-38.6l38.1-165h57.7
	c-0.5,17.5-3.5,108.9-3.5,108.9l45.1-108.9h58.2L-2556.6,271.3z"/>
<path class="st10" d="M-2163.1,146.9l2.8-11.9c0.5-1.8,0.7-3.4,0.7-4.8c0-5.3-3.7-8.4-10.3-8.4c-7.2,0-11.5,4.3-11.5,11.4
	c0,3.9,1.9,7.1,6.1,11.4l27.8,28.1c11.2,11.2,15.7,20.1,15.7,31.5c0,33.1-19.4,51.6-60.5,51.6c-36.5,0-56.1-12.8-56.1-36.1
	c0-7.1,1.2-13.9,3.5-22.4h46l-2.8,11.2c-0.7,3-0.9,5-0.9,6.8c0,5.7,4.2,9.1,10.8,9.1c8.2,0,12.9-6.2,12.9-17.1
	c0-5.7-1.9-7.8-9.8-15.5l-22.7-22.6c-10.1-10-15.2-20.1-15.2-30.8c0-12.1,4.7-25.3,11.9-33.3c9.3-10.3,22.2-14.4,45.1-14.4
	c34.6,0,54,12.8,54,35.6c0,5.7-0.9,11-3.5,20.5h-44V146.9z"/>
<path class="st6" d="M-2057,197.8c24.3,0,46.3,2.3,46.3,31.3c0,4.9-0.9,11.9-2.8,20.6c-10.1,44.2-24.8,53.5-62.6,53.5h-18
	l-13.8,59.6h-46.3l38.1-165L-2057,197.8L-2057,197.8z M-2087,271.7h8.9c11.9,0,15-2.3,17.5-13.3l3.5-14.7c0.5-2.1,0.7-4.4,0.7-5.8
	c0-6.3-3-8.4-11.5-8.4h-9.3L-2087,271.7z"/>
<path class="st6" d="M-1849.4,276.3h-39l25.9-113.4l-51.4,113.4h-29.7v-111l-25.7,111h-38.6l38.1-165h57.7
	c-0.5,17.5-3.5,108.9-3.5,108.9l45.1-108.9h58.2L-1849.4,276.3z"/>
<path class="st0" d="M113.1,121.4c0,0-17.7-40.8,17.9-62c49-29.1,102.2-18.1,105.7-44.5l0,0C250,44,233.2,76,192.8,93.5
	c-36.1,15.7-36.3,56.4-36.3,56.4s-8.1-29.2-5.3-57.4c0,0-6.1,18.5-5.4,31.1c0,0-9.7-23.8-4.9-44.6c0,0-10.1,20.1-9.4,45.3
	c0,0-13.8-32.7-5.5-43.8C125.9,80.5,113.4,94.4,113.1,121.4z"/>
<path class="st0" d="M172,184.8c0,0-23.8-62.5,24-85.9c55.5-27.2,59.9-27.3,62.1-65.6c0,0,0.1,0.1,0.3,0.2
	c32.2,19.2,37.3,61.7-6.1,81.3c-39.3,17.7-43.6,60.2-35.4,74.6c0,0-26.8-11.3-19.5-35.6c0,0-12.8,20-7.6,37.4
	c0,0-14.1-27.6-4.9-40.5C185,150.8,169.2,171.2,172,184.8z"/>
<path class="st0" d="M224.9,189.7c0,0-12.3-32.6,4.5-50.7c5.4-5.8,20.7-22.8,45.1-27.7c50.5-10.2,72.4-34.7,53.9-60.3
	c0,0,62.7,41.6,42.7,75.7c-14.5,24.7-36.1,25.8-51.3,25.7c-16.9,0-25.5,23.2-39.4,41.4c0,0-5.4-24.5,9.7-43.9c0,0-29,24.1-31.3,52.4
	c0,0-5.8-29.9,7.4-61.2c0,0-17.6,31.2-28.2,52.7c0,0-7.2-35.2,5.1-45.6C243.1,148.1,230.9,152.8,224.9,189.7z"/>
<path class="st11" d="M99.9,146.9c0,0,3.5-15.3,3.5-16.7c0-5.3-3.7-8.4-10.3-8.4c-7.2,0-11.5,4.3-11.5,11.4c0,3.9,1.9,7.1,6.1,11.4
	l27.8,28.1c11.2,11.2,15.7,20.1,15.7,31.5c0,33.1-19.4,51.6-60.5,51.6c-36.5,0-56.1-12.8-56.1-36.1c0-7.1,1.2-13.9,3.5-22.4h46
	l-2.8,11.2c-0.7,3-0.9,5-0.9,6.8c0,5.7,4.2,9.1,10.8,9.1c8.2,0,12.9-6.2,12.9-17.1c0-5.7-1.9-7.8-9.8-15.5l-22.7-22.6
	c-10.1-10-15.2-20.1-15.2-30.8c0-12.1,4.7-25.3,11.9-33.3c9.3-10.3,22.2-14.4,45.1-14.4c34.6,0,54,12.8,54,35.6
	c0,5.7-0.9,11-3.5,20.5L99.9,146.9z"/>
<path class="st9" d="M206,197.8c24.3,0,46.3,2.3,46.3,31.3c0,4.9-0.9,11.9-2.8,20.6c-10.1,44.2-24.8,53.5-62.6,53.5h-18L155,362.9
	h-46.3l38.1-165L206,197.8L206,197.8z M176.1,271.7h8.9c11.9,0,15-2.3,17.5-13.3l3.5-14.7c0.5-2.1,0.7-4.4,0.7-5.8
	c0-6.3-3-8.4-11.5-8.4h-9.3L176.1,271.7z"/>
<path class="st9" d="M413.6,276.3h-39l25.9-113.4l-51.4,113.4h-29.7v-111l-25.7,111h-38.6l38.1-165h57.7
	c-0.5,17.5-3.5,108.9-3.5,108.9l45.1-108.9h58.2L413.6,276.3z"/>
<path class="st12" d="M-1423.6,111.1c0,0-17.7-40.8,17.9-62c49-29.1,102.2-18.1,105.7-44.5l0,0c13.3,29.1-3.6,61.1-43.9,78.7
	c-36.1,15.7-36.3,56.4-36.3,56.4s-8.1-29.2-5.3-57.4c0,0-6.1,18.5-5.4,31.1c0,0-9.7-23.8-4.9-44.6c0,0-4.8,22.5-4.1,47.6
	c0,0-19.1-35-10.8-46.1C-1410.8,70.2-1423.3,84.1-1423.6,111.1z"/>
<path class="st12" d="M-1359.5,182.7c0,0-24-62.9,24-85.9c49.1-23.5,56.7-29.3,59-67.6c0,0,0.1,0.1,0.3,0.2
	c32.2,19.2,40.5,63.7-2.9,83.3c-39.3,17.7-43.6,60.2-35.4,74.6c0,0-26.8-11.3-19.5-35.6c0,0-12.8,20-7.6,37.4
	c0,0-14.1-27.6-4.9-40.5C-1346.5,148.7-1362.3,169.1-1359.5,182.7z"/>
<path class="st12" d="M-1291.1,187.7c0,0-12.3-32.6,4.5-50.7c5.4-5.8,20.7-22.8,45.1-27.7c50.5-10.2,72.4-34.7,53.9-60.3
	c0,0,62.7,41.6,42.7,75.7c-14.5,24.7-36.1,25.8-51.3,25.7c-16.9,0-25.5,23.2-39.4,41.4c0,0-5.4-24.5,9.7-43.9c0,0-29,24.1-31.3,52.4
	c0,0-5.8-29.9,7.4-61.2c0,0-17.6,31.2-28.2,52.7c0,0-7.2-35.2,5.1-45.6C-1273,146.1-1285.1,150.8-1291.1,187.7z"/>
<path class="st10" d="M-1416.1,144.9l2.8-11.9c0.5-1.8,0.7-3.4,0.7-4.8c0-5.3-3.7-8.4-10.3-8.4c-7.2,0-11.5,4.3-11.5,11.4
	c0,3.9,1.9,7.1,6.1,11.4l27.8,28.1c11.2,11.2,15.7,20.1,15.7,31.5c0,33.1-19.4,51.6-60.5,51.6c-36.5,0-56.1-12.8-56.1-36.1
	c0-7.1,1.2-13.9,3.5-22.4h46l-2.8,11.2c-0.7,3-0.9,5-0.9,6.8c0,5.7,4.2,9.1,10.8,9.1c8.2,0,12.9-6.2,12.9-17.1
	c0-5.7-1.9-7.8-9.8-15.5l-22.7-22.6c-10.1-10-15.2-20.1-15.2-30.8c0-12.1,4.7-25.3,11.9-33.3c9.3-10.3,22.2-14.4,45.1-14.4
	c34.6,0,54,12.8,54,35.6c0,5.7-0.9,11-3.5,20.5h-44V144.9z"/>
<path class="st6" d="M-1310,195.8c24.3,0,46.3,2.3,46.3,31.3c0,4.9-0.9,11.9-2.8,20.6c-10.1,44.2-24.8,53.5-62.6,53.5h-18
	l-13.8,59.6h-46.3l38.1-165L-1310,195.8L-1310,195.8z M-1340,269.7h8.9c11.9,0,15-2.3,17.5-13.3l3.5-14.7c0.5-2.1,0.7-4.4,0.7-5.8
	c0-6.3-3-8.4-11.5-8.4h-9.3L-1340,269.7z"/>
<path class="st6" d="M-1102.4,274.3h-39l25.9-113.4l-51.4,113.4h-29.7v-111l-25.7,111h-38.6l38.1-165h57.7
	c-0.5,17.5-3.5,108.9-3.5,108.9l45.1-108.9h58.2L-1102.4,274.3z"/>
</svg>
